<svg width="154" height="141" viewBox="0 0 154 141" fill="none" xmlns="http://www.w3.org/2000/svg">
<g clip-path="url(#clip0)">
<path d="M72.1069 369.637C69.335 370.138 67.3166 369.733 66.0517 368.42C64.5994 367.288 63.6158 365.704 63.101 363.669C62.4056 361.446 62.0852 358.861 62.1398 355.916C62.3752 353.157 60.9042 348.065 57.7268 340.639C54.7302 333.401 50.7431 324.947 45.7657 315.278C40.795 305.24 35.0982 294.636 28.6752 283.467C22.4397 272.116 16.1973 261.134 9.94818 250.52C3.69902 239.907 -2.199 230.22 -7.74587 221.461C-13.2928 212.702 -17.7691 205.804 -21.175 200.769C-25.2968 194.614 -29.7766 187.901 -34.6144 180.628C-38.9169 174.287 -43.9388 167.011 -49.68 158.8C-55.6019 150.403 -62.3404 141.345 -69.8954 131.628L-57.1497 99.8183C-55.4073 95.2463 -52.7956 93.453 -49.3146 94.4384C-46.0143 95.2364 -41.7679 99.6432 -36.5756 107.659C-33.8857 111.577 -29.5866 118.102 -23.6783 127.237C-17.9507 136.183 -11.6913 146.245 -4.9001 157.421C1.89798 168.229 8.77957 179.5 15.7447 191.232C22.7166 202.596 28.6947 212.928 33.679 222.23C38.4895 230.975 44.0124 241.023 50.2479 252.373C60.7518 271.906 74.9887 298.692 92.9588 332.729C99.9208 334.7 106.965 332.252 114.091 325.386C121.967 317.797 128.171 306.032 132.703 290.093C137.422 273.974 138.875 255.215 137.062 233.817C135.249 212.419 129.326 189.195 119.293 164.146C109.266 138.728 93.536 113.02 72.1017 87.0221C60.3907 72.9917 48.6216 62.0913 36.7945 54.3207C24.9673 46.5501 13.4572 41.548 2.26399 39.3144C-8.74166 36.9001 -19.2462 37.2577 -29.2497 40.3873C-39.0656 43.3361 -48.0054 48.6955 -56.0691 56.4653C-75.0093 74.7155 -87.0166 101.474 -92.0912 136.741L-115.994 114.75C-116.359 104.613 -114.802 95.1572 -111.324 86.3814C-107.839 77.2373 -104.1 69.2951 -100.108 62.5548C-95.3579 54.7234 -89.7917 47.5518 -83.409 41.04C-71.4073 29.4755 -57.6157 20.7069 -42.0342 14.734C-26.446 8.393 -10.1026 6.02572 6.99574 7.63219C24.2817 9.05796 41.9476 14.8189 59.9935 24.9149C77.8587 34.8235 95.26 49.8802 112.198 70.0853C121.928 81.6846 130.609 95.1983 138.243 110.626C145.883 125.686 152.123 141.733 156.964 158.767C161.992 175.62 165.353 192.995 167.047 210.891C168.741 228.787 168.42 246.094 166.084 262.81C163.929 279.714 159.491 295.563 152.77 310.356C146.23 325.337 137.147 338.429 125.52 349.632C121.777 352.878 117.3 355.926 112.09 358.776C107.624 361.272 102.056 363.563 95.3868 365.649C88.7179 367.735 80.9579 369.065 72.1069 369.637Z" fill="#E0EDFF"/>
</g>
<defs>
<clipPath id="clip0">
<rect width="154" height="141" fill="white"/>
</clipPath>
</defs>
</svg>
